<?xml version="1.0" encoding="UTF-8"?>
<!DOCTYPE svg PUBLIC "-//W3C//DTD SVG 1.1//EN" "http://www.w3.org/Graphics/SVG/1.1/DTD/svg11.dtd">
<svg xmlns="http://www.w3.org/2000/svg" version="1.1" width="64px" height="64px" style="shape-rendering:geometricPrecision; text-rendering:geometricPrecision; image-rendering:optimizeQuality; fill-rule:evenodd; clip-rule:evenodd" xmlns:xlink="http://www.w3.org/1999/xlink">
<g><path style="opacity:0.938" fill="#f8be6e" d="M 22.5,3.5 C 18.8049,6.84707 14.4715,8.84707 9.5,9.5C 9.70381,6.48237 10.0371,3.48237 10.5,0.5C 14.1629,0.951784 17.8296,1.45178 21.5,2C 22.056,2.38258 22.3893,2.88258 22.5,3.5 Z"/></g>
<g><path style="opacity:0.933" fill="#f8bd6e" d="M 53.5,9.5 C 48.5499,8.69504 44.5499,6.36171 41.5,2.5C 44.9736,1.47505 48.6403,0.808384 52.5,0.5C 52.9629,3.48237 53.2962,6.48237 53.5,9.5 Z"/></g>
<g><path style="opacity:1" fill="#efa055" d="M 41.5,2.5 C 44.5499,6.36171 48.5499,8.69504 53.5,9.5C 53.853,11.6348 53.0197,12.9681 51,13.5C 47.2611,11.38 43.4278,9.38 39.5,7.5C 38.1766,5.14601 38.8433,3.47935 41.5,2.5 Z"/></g>
<g><path style="opacity:1" fill="#efa055" d="M 22.5,3.5 C 24.4759,4.42714 24.8092,5.76047 23.5,7.5C 20.0061,9.07948 16.6728,10.9128 13.5,13C 10.5096,13.8469 9.17624,12.6802 9.5,9.5C 14.4715,8.84707 18.8049,6.84707 22.5,3.5 Z"/></g>
<g><path style="opacity:0.895" fill="#fabf67" d="M 51.5,18.5 C 50.5,18.5 49.5,18.5 48.5,18.5C 48.5,19.5 48.5,20.5 48.5,21.5C 46.4752,19.8036 44.4752,18.137 42.5,16.5C 39.3658,13.5091 35.5325,12.1757 31,12.5C 26.0473,12.3991 21.8806,14.0658 18.5,17.5C 16.9382,17.7329 15.6049,18.3995 14.5,19.5C 13.791,18.596 12.791,18.2627 11.5,18.5C 19.7357,9.57981 29.7357,7.07981 41.5,11C 45.4387,12.7911 48.772,15.2911 51.5,18.5 Z"/></g>
<g><path style="opacity:0.965" fill="#d9905f" d="M 42.5,16.5 C 34.8482,12.2135 27.5148,12.5468 20.5,17.5C 19.8333,17.5 19.1667,17.5 18.5,17.5C 21.8806,14.0658 26.0473,12.3991 31,12.5C 35.5325,12.1757 39.3658,13.5091 42.5,16.5 Z"/></g>
<g><path style="opacity:1" fill="#4b528a" d="M 42.5,16.5 C 44.4752,18.137 46.4752,19.8036 48.5,21.5C 50.5223,25.4148 51.8557,29.5814 52.5,34C 51.9811,38.7764 50.6478,43.2764 48.5,47.5C 46.8333,48.5 45.5,49.8333 44.5,51.5C 43.8333,51.5 43.1667,51.5 42.5,51.5C 42.5569,50.391 42.8902,49.391 43.5,48.5C 43.8333,47.8333 44.1667,47.1667 44.5,46.5C 46.1745,43.4928 46.8412,40.1595 46.5,36.5C 47.5,36.5 48.5,36.5 49.5,36.5C 49.5,35.1667 49.5,33.8333 49.5,32.5C 48.5,32.5 47.5,32.5 46.5,32.5C 43.8396,26.5063 39.5063,22.1729 33.5,19.5C 33.5,18.5 33.5,17.5 33.5,16.5C 31.901,16.2322 30.5676,16.5655 29.5,17.5C 26.5,17.5 23.5,17.5 20.5,17.5C 27.5148,12.5468 34.8482,12.2135 42.5,16.5 Z"/></g>
<g><path style="opacity:1" fill="#fafbfa" d="M 33.5,19.5 C 31.5168,19.8432 30.1834,19.1765 29.5,17.5C 30.5676,16.5655 31.901,16.2322 33.5,16.5C 33.5,17.5 33.5,18.5 33.5,19.5 Z"/></g>
<g><path style="opacity:1" fill="#5660a2" d="M 18.5,17.5 C 19.1667,17.5 19.8333,17.5 20.5,17.5C 23.5,17.5 26.5,17.5 29.5,17.5C 30.1834,19.1765 31.5168,19.8432 33.5,19.5C 39.5063,22.1729 43.8396,26.5063 46.5,32.5C 46.5,33.8333 46.5,35.1667 46.5,36.5C 46.8412,40.1595 46.1745,43.4928 44.5,46.5C 44.2942,44.4508 43.4609,44.1175 42,45.5C 41.4153,46.9976 41.9153,47.9976 43.5,48.5C 42.8902,49.391 42.5569,50.391 42.5,51.5C 39.1698,53.9668 35.3364,55.3002 31,55.5C 26.5882,54.8625 22.4215,53.5291 18.5,51.5C 7.96093,40.1498 7.96093,28.8164 18.5,17.5 Z"/></g>
<g><path style="opacity:1" fill="#fbd69d" d="M 11.5,18.5 C 12.791,18.2627 13.791,18.596 14.5,19.5C 7.88923,29.4716 7.88923,39.4716 14.5,49.5C 13.791,50.404 12.791,50.7373 11.5,50.5C 4.83333,39.8333 4.83333,29.1667 11.5,18.5 Z"/></g>
<g><path style="opacity:1" fill="#fbd69d" d="M 51.5,18.5 C 58.1667,29.1667 58.1667,39.8333 51.5,50.5C 50.5,50.5 49.5,50.5 48.5,50.5C 48.5,49.5 48.5,48.5 48.5,47.5C 53.5955,41.2898 54.7622,34.2898 52,26.5C 51.3028,24.4156 50.1361,22.7489 48.5,21.5C 48.5,20.5 48.5,19.5 48.5,18.5C 49.5,18.5 50.5,18.5 51.5,18.5 Z"/></g>
<g><path style="opacity:1" fill="#e6e7f0" d="M 19.5,20.5 C 22.1402,21.7936 22.1402,23.127 19.5,24.5C 17.2064,23.3746 17.2064,22.0412 19.5,20.5 Z"/></g>
<g><path style="opacity:1" fill="#f6bf6b" d="M 30.5,36.5 C 30.5,35.8333 30.1667,35.5 29.5,35.5C 30.0646,30.5116 30.7313,25.5116 31.5,20.5C 32.2177,25.1825 32.8843,29.8491 33.5,34.5C 32.9953,35.9185 31.9953,36.5852 30.5,36.5 Z"/></g>
<g><path style="opacity:1" fill="#f8f9f9" d="M 41.5,21.5 C 42.9953,21.4148 43.9953,22.0815 44.5,23.5C 42.6043,24.6394 41.6043,23.9728 41.5,21.5 Z"/></g>
<g><path style="opacity:0.996" fill="#df9a6b" d="M 18.5,17.5 C 7.96093,28.8164 7.96093,40.1498 18.5,51.5C 16.9382,51.2671 15.6049,50.6005 14.5,49.5C 7.88923,39.4716 7.88923,29.4716 14.5,19.5C 15.6049,18.3995 16.9382,17.7329 18.5,17.5 Z"/></g>
<g><path style="opacity:1" fill="#fafbfa" d="M 13.5,32.5 C 14.5,32.5 15.5,32.5 16.5,32.5C 16.5,33.8333 16.5,35.1667 16.5,36.5C 15.5,36.5 14.5,36.5 13.5,36.5C 13.5,35.1667 13.5,33.8333 13.5,32.5 Z"/></g>
<g><path style="opacity:1" fill="#fafbfa" d="M 46.5,32.5 C 47.5,32.5 48.5,32.5 49.5,32.5C 49.5,33.8333 49.5,35.1667 49.5,36.5C 48.5,36.5 47.5,36.5 46.5,36.5C 46.5,35.1667 46.5,33.8333 46.5,32.5 Z"/></g>
<g><path style="opacity:1" fill="#ebecf2" d="M 29.5,35.5 C 30.1667,35.5 30.5,35.8333 30.5,36.5C 28.8545,38.8122 26.8545,40.8122 24.5,42.5C 23.479,41.9984 23.3123,41.3317 24,40.5C 25.7038,38.6266 27.5372,36.9599 29.5,35.5 Z"/></g>
<g><path style="opacity:1" fill="#de9b6d" d="M 48.5,21.5 C 50.1361,22.7489 51.3028,24.4156 52,26.5C 54.7622,34.2898 53.5955,41.2898 48.5,47.5C 50.6478,43.2764 51.9811,38.7764 52.5,34C 51.8557,29.5814 50.5223,25.4148 48.5,21.5 Z"/></g>
<g><path style="opacity:1" fill="#e5e6ef" d="M 18.5,44.5 C 21.5688,44.963 22.0688,46.2963 20,48.5C 17.988,47.4335 17.488,46.1002 18.5,44.5 Z"/></g>
<g><path style="opacity:1" fill="#ebecf2" d="M 44.5,46.5 C 44.1667,47.1667 43.8333,47.8333 43.5,48.5C 41.9153,47.9976 41.4153,46.9976 42,45.5C 43.4609,44.1175 44.2942,44.4508 44.5,46.5 Z"/></g>
<g><path style="opacity:0.906" fill="#fabf67" d="M 48.5,47.5 C 48.5,48.5 48.5,49.5 48.5,50.5C 49.5,50.5 50.5,50.5 51.5,50.5C 50.1092,52.8903 48.1092,54.5569 45.5,55.5C 43.5659,56.1103 41.8993,57.1103 40.5,58.5C 34.5,59.8333 28.5,59.8333 22.5,58.5C 21.2196,57.0687 19.5529,56.4021 17.5,56.5C 15.1939,54.8606 13.1939,52.8606 11.5,50.5C 12.791,50.7373 13.791,50.404 14.5,49.5C 15.6049,50.6005 16.9382,51.2671 18.5,51.5C 24.6722,56.6926 31.6722,57.8592 39.5,55C 41.5844,54.3028 43.2511,53.1361 44.5,51.5C 45.5,49.8333 46.8333,48.5 48.5,47.5 Z"/></g>
<g><path style="opacity:1" fill="#fafbfa" d="M 29.5,49.5 C 30.8333,49.5 32.1667,49.5 33.5,49.5C 33.5,50.5 33.5,51.5 33.5,52.5C 32.1667,52.5 30.8333,52.5 29.5,52.5C 29.5,51.5 29.5,50.5 29.5,49.5 Z"/></g>
<g><path style="opacity:1" fill="#de915e" d="M 18.5,51.5 C 22.4215,53.5291 26.5882,54.8625 31,55.5C 35.3364,55.3002 39.1698,53.9668 42.5,51.5C 43.1667,51.5 43.8333,51.5 44.5,51.5C 43.2511,53.1361 41.5844,54.3028 39.5,55C 31.6722,57.8592 24.6722,56.6926 18.5,51.5 Z"/></g>
<g><path style="opacity:0.895" fill="#da8453" d="M 17.5,56.5 C 19.5529,56.4021 21.2196,57.0687 22.5,58.5C 21.145,61.5177 18.8116,62.851 15.5,62.5C 15.2525,60.1417 15.9192,58.1417 17.5,56.5 Z"/></g>
<g><path style="opacity:0.975" fill="#da8554" d="M 45.5,55.5 C 47.8504,57.2133 48.8504,59.5466 48.5,62.5C 47.1266,62.6567 45.7932,62.49 44.5,62C 43.2949,60.6244 41.9616,59.4577 40.5,58.5C 41.8993,57.1103 43.5659,56.1103 45.5,55.5 Z"/></g>
</svg>
