<?xml version="1.0" encoding="UTF-8"?>
<!DOCTYPE svg PUBLIC "-//W3C//DTD SVG 1.1//EN" "http://www.w3.org/Graphics/SVG/1.1/DTD/svg11.dtd">
<svg xmlns="http://www.w3.org/2000/svg" version="1.1" width="62px" height="62px" style="shape-rendering:geometricPrecision; text-rendering:geometricPrecision; image-rendering:optimizeQuality; fill-rule:evenodd; clip-rule:evenodd" xmlns:xlink="http://www.w3.org/1999/xlink">
<g><path style="opacity:0.96" fill="#222120" d="M 13.5,1.5 C 15.4828,2.90217 17.1495,4.73551 18.5,7C 23.0268,9.09611 27.0268,11.9294 30.5,15.5C 35.5497,9.13685 41.883,4.47018 49.5,1.5C 50.3142,3.76618 50.8142,6.09951 51,8.5C 51.414,8.04265 51.914,7.70931 52.5,7.5C 54.0152,9.54734 54.8485,11.8807 55,14.5C 57.7997,12.8821 59.2997,13.7155 59.5,17C 58.8805,27.3879 58.2138,37.7212 57.5,48C 49.0316,53.1 40.0316,56.9333 30.5,59.5C 20.3297,56.6653 10.8297,52.332 2,46.5C 1.33333,35.8333 1.33333,25.1667 2,14.5C 3.33333,13.1667 4.66667,13.1667 6,14.5C 6.49224,13.451 6.32557,12.451 5.5,11.5C 6.94793,10.6461 8.28126,9.64609 9.5,8.5C 10.1667,8.83333 10.8333,9.16667 11.5,9.5C 12.2604,6.81326 12.9271,4.14659 13.5,1.5 Z"/></g>
<g><path style="opacity:1" fill="#ecb9a5" d="M 48.5,8.5 C 47.8333,9.5 47.1667,10.5 46.5,11.5C 40.336,12.582 35.0026,15.2487 30.5,19.5C 31.1103,17.5659 32.1103,15.8993 33.5,14.5C 38.1473,11.7262 43.1473,9.72622 48.5,8.5 Z"/></g>
<g><path style="opacity:1" fill="#f0c5b2" d="M 28.5,17.5 C 25.2257,15.0305 21.559,13.3638 17.5,12.5C 17.1583,11.6618 16.4916,11.3284 15.5,11.5C 13.3843,9.91186 13.051,7.91186 14.5,5.5C 17.8199,8.49448 21.4866,10.9945 25.5,13C 27.1412,14.129 28.1412,15.629 28.5,17.5 Z"/></g>
<g><path style="opacity:1" fill="#f5e4d5" d="M 48.5,8.5 C 43.1473,9.72622 38.1473,11.7262 33.5,14.5C 34.6253,12.8712 35.9586,11.3712 37.5,10C 41.5766,8.21309 45.41,6.04643 49,3.5C 49.3845,5.19657 49.2178,6.86324 48.5,8.5 Z"/></g>
<g><path style="opacity:1" fill="#7e5149" d="M 30.5,19.5 C 35.0026,15.2487 40.336,12.582 46.5,11.5C 48.4944,10.6503 50.4944,10.1503 52.5,10C 51.8333,10.6667 51.1667,11.3333 50.5,12C 51.7376,11.9227 52.7376,12.0894 53.5,12.5C 51.5166,16.6606 48.1833,18.494 43.5,18C 43.8333,18.3333 44.1667,18.6667 44.5,19C 42.6031,20.1097 40.7698,20.2764 39,19.5C 37.414,20.376 35.914,21.376 34.5,22.5C 32.517,22.1852 31.1837,21.1852 30.5,19.5 Z"/></g>
<g><path style="opacity:1" fill="#945c52" d="M 15.5,11.5 C 16.4916,11.3284 17.1583,11.6618 17.5,12.5C 16.5266,12.9867 15.5266,13.4867 14.5,14C 17.2442,14.8035 19.9109,15.8035 22.5,17C 22.1667,17.3333 21.8333,17.6667 21.5,18C 22.6721,18.4186 23.6721,19.0853 24.5,20C 21.2842,19.1027 17.9509,18.2693 14.5,17.5C 12.6916,17.5086 11.0249,17.0086 9.5,16C 10.1667,15.6667 10.8333,15.3333 11.5,15C 6.5332,14.5183 6.19987,13.0183 10.5,10.5C 13.0278,11.4978 13.0278,12.3311 10.5,13C 12.5348,13.5986 14.2015,13.0986 15.5,11.5 Z"/></g>
<g><path style="opacity:1" fill="#ce9e46" d="M 3.5,15.5 C 8.75719,16.9704 8.75719,18.3037 3.5,19.5C 3.5,18.1667 3.5,16.8333 3.5,15.5 Z"/></g>
<g><path style="opacity:1" fill="#d09f47" d="M 55.5,15.5 C 57.1765,16.1834 57.8432,17.5168 57.5,19.5C 53.4366,19.384 52.7699,18.0507 55.5,15.5 Z"/></g>
<g><path style="opacity:1" fill="#61443e" d="M 17.5,12.5 C 21.559,13.3638 25.2257,15.0305 28.5,17.5C 29.525,17.8966 29.6917,18.5632 29,19.5C 28.2825,18.5494 27.4491,18.3828 26.5,19C 27.3279,19.9147 28.3279,20.5814 29.5,21C 28.5,21.5 27.5,22 26.5,22.5C 22.8081,21.4361 19.1414,20.2695 15.5,19C 14.944,18.6174 14.6107,18.1174 14.5,17.5C 17.9509,18.2693 21.2842,19.1027 24.5,20C 23.6721,19.0853 22.6721,18.4186 21.5,18C 21.8333,17.6667 22.1667,17.3333 22.5,17C 19.9109,15.8035 17.2442,14.8035 14.5,14C 15.5266,13.4867 16.5266,12.9867 17.5,12.5 Z"/></g>
<g><path style="opacity:1" fill="#dadbdc" d="M 12.5,23.5 C 18.7022,23.5307 21.5355,26.5307 21,32.5C 18.9441,33.5832 17.6108,35.2499 17,37.5C 15.6764,36.1198 14.3431,35.7865 13,36.5C 11.8706,33.735 10.3706,31.235 8.5,29C 9.65019,27.019 10.9835,25.1857 12.5,23.5 Z"/></g>
<g><path style="opacity:1" fill="#2e2f30" d="M 12.5,26.5 C 15.0628,27.9979 15.0628,29.6646 12.5,31.5C 11.3336,29.8327 11.3336,28.166 12.5,26.5 Z"/></g>
<g><path style="opacity:1" fill="#232323" d="M 16.5,28.5 C 17.5,28.5 18.5,28.5 19.5,28.5C 19.5391,30.3588 18.7058,31.6921 17,32.5C 16.51,31.2068 16.3433,29.8734 16.5,28.5 Z"/></g>
<g><path style="opacity:1" fill="#f5b84f" d="M 32.5,29.5 C 31.9517,32.0838 30.285,33.0838 27.5,32.5C 27.5,31.5 27.5,30.5 27.5,29.5C 29.1667,29.5 30.8333,29.5 32.5,29.5 Z"/></g>
<g><path style="opacity:1" fill="#a9abaf" d="M 54.5,31.5 C 54.44,32.0431 54.1067,32.3764 53.5,32.5C 52.8679,30.2632 51.5346,28.5965 49.5,27.5C 49.3154,29.3162 49.3154,30.9829 49.5,32.5C 44.3555,32.6164 42.3555,34.9498 43.5,39.5C 42.2892,41.5627 43.1226,42.5627 46,42.5C 49.553,42.774 51.053,41.4407 50.5,38.5C 52.0618,38.2671 53.3951,37.6005 54.5,36.5C 53.3384,41.4916 50.1717,44.1583 45,44.5C 37.1397,41.791 35.473,36.791 40,29.5C 43.3379,26.6819 47.1712,25.8485 51.5,27C 53.1412,28.129 54.1412,29.629 54.5,31.5 Z"/></g>
<g><path style="opacity:1" fill="#262626" d="M 46.5,28.5 C 49.4809,31.1224 49.1476,31.789 45.5,30.5C 45.8627,29.8165 46.1961,29.1499 46.5,28.5 Z"/></g>
<g><path style="opacity:1" fill="#2d2d2d" d="M 42.5,28.5 C 45.1009,29.9225 44.9342,31.2558 42,32.5C 41.5,32.1667 41,31.8333 40.5,31.5C 41.1925,30.4822 41.8592,29.4822 42.5,28.5 Z"/></g>
<g><path style="opacity:1" fill="#d86f43" d="M 32.5,29.5 C 34.6516,30.0768 34.985,31.2435 33.5,33C 31.2884,33.7891 29.2884,33.6225 27.5,32.5C 30.285,33.0838 31.9517,32.0838 32.5,29.5 Z"/></g>
<g><path style="opacity:1" fill="#505358" d="M 54.5,31.5 C 55.8333,33.1667 55.8333,34.8333 54.5,36.5C 53.3951,37.6005 52.0618,38.2671 50.5,38.5C 49.4489,37.7777 48.7822,36.7777 48.5,35.5C 49.1098,34.609 49.4431,33.609 49.5,32.5C 49.3154,30.9829 49.3154,29.3162 49.5,27.5C 51.5346,28.5965 52.8679,30.2632 53.5,32.5C 54.1067,32.3764 54.44,32.0431 54.5,31.5 Z"/></g>
<g><path style="opacity:1" fill="#2b2b2b" d="M 49.5,32.5 C 49.4431,33.609 49.1098,34.609 48.5,35.5C 47.1667,35.5 45.8333,35.5 44.5,35.5C 44.5674,36.9587 44.2341,38.2921 43.5,39.5C 42.3555,34.9498 44.3555,32.6164 49.5,32.5 Z"/></g>
<g><path style="opacity:1" fill="#212121" d="M 39.5,34.5 C 41.898,35.8823 42.0647,37.549 40,39.5C 39.5065,37.8659 39.3398,36.1992 39.5,34.5 Z"/></g>
<g><path style="opacity:1" fill="#9c9ea2" d="M 48.5,35.5 C 48.7822,36.7777 49.4489,37.7777 50.5,38.5C 49.1779,38.67 48.0113,38.3366 47,37.5C 46.1841,38.8228 45.0174,39.4894 43.5,39.5C 44.2341,38.2921 44.5674,36.9587 44.5,35.5C 45.8333,35.5 47.1667,35.5 48.5,35.5 Z"/></g>
<g><path style="opacity:1" fill="#232424" d="M 50.5,38.5 C 51.053,41.4407 49.553,42.774 46,42.5C 43.1226,42.5627 42.2892,41.5627 43.5,39.5C 45.0174,39.4894 46.1841,38.8228 47,37.5C 48.0113,38.3366 49.1779,38.67 50.5,38.5 Z"/></g>
<g><path style="opacity:1" fill="#a4a6a8" d="M 11.5,39.5 C 13.2632,38.6655 14.9299,39.1655 16.5,41C 14.7184,41.1218 13.0518,40.6218 11.5,39.5 Z"/></g>
<g><path style="opacity:1" fill="#a7a8ab" d="M 9.5,41.5 C 11.6841,40.8919 13.6841,41.5586 15.5,43.5C 13.2972,43.3964 11.2972,42.7298 9.5,41.5 Z"/></g>
<g><path style="opacity:1" fill="#4c4f54" d="M 9.5,41.5 C 11.2972,42.7298 13.2972,43.3964 15.5,43.5C 17.1033,43.3118 18.4366,43.8118 19.5,45C 17.8739,44.8047 16.2072,44.8047 14.5,45C 15.6721,45.4186 16.6721,46.0853 17.5,47C 15.1771,46.6943 12.8437,46.0277 10.5,45C 9.66337,43.9887 9.33003,42.8221 9.5,41.5 Z"/></g>
<g><path style="opacity:1" fill="#ba603d" d="M 3.5,42.5 C 6.2436,43.0717 7.07693,44.7383 6,47.5C 4.10793,46.3826 3.27459,44.7159 3.5,42.5 Z"/></g>
<g><path style="opacity:1" fill="#ce6941" d="M 55.5,42.5 C 56.9405,44.4199 56.6071,46.0866 54.5,47.5C 53.3482,45.6029 53.6815,43.9362 55.5,42.5 Z"/></g>
<g><path style="opacity:1" fill="#f2b24e" d="M 32.5,48.5 C 31.9517,51.0838 30.285,52.0838 27.5,51.5C 27.5,50.5 27.5,49.5 27.5,48.5C 29.1667,48.5 30.8333,48.5 32.5,48.5 Z"/></g>
<g><path style="opacity:1" fill="#d76d43" d="M 32.5,48.5 C 34.6516,49.0768 34.985,50.2435 33.5,52C 31.2884,52.7891 29.2884,52.6225 27.5,51.5C 30.285,52.0838 31.9517,51.0838 32.5,48.5 Z"/></g>
</svg>
