<?xml version="1.0" encoding="UTF-8"?>
<!DOCTYPE svg PUBLIC "-//W3C//DTD SVG 1.1//EN" "http://www.w3.org/Graphics/SVG/1.1/DTD/svg11.dtd">
<svg xmlns="http://www.w3.org/2000/svg" version="1.1" width="48px" height="48px" style="shape-rendering:geometricPrecision; text-rendering:geometricPrecision; image-rendering:optimizeQuality; fill-rule:evenodd; clip-rule:evenodd" xmlns:xlink="http://www.w3.org/1999/xlink">
<g><path style="opacity:0.859" fill="#785548" d="M 39.5,15.5 C 38.8333,15.5 38.1667,15.5 37.5,15.5C 35.8333,13.1667 33.8333,11.1667 31.5,9.5C 31.5,8.83333 31.5,8.16667 31.5,7.5C 32.2674,6.82803 32.9341,5.9947 33.5,5C 37.1237,6.43094 40.1237,8.93094 42.5,12.5C 41.6602,13.735 40.6602,14.735 39.5,15.5 Z"/></g>
<g><path style="opacity:0.829" fill="#28b6f5" d="M 8.5,15.5 C 6.69206,14.0821 6.02539,12.0821 6.5,9.5C 1.16667,8.83333 1.16667,8.16667 6.5,7.5C 7.16667,-0.5 7.83333,-0.5 8.5,7.5C 13.8333,8.16667 13.8333,8.83333 8.5,9.5C 8.5,11.5 8.5,13.5 8.5,15.5 Z"/></g>
<g><path style="opacity:0.947" fill="#b0e3fb" d="M 31.5,7.5 C 31.5,8.16667 31.5,8.83333 31.5,9.5C 30.5207,10.7653 29.5207,12.0986 28.5,13.5C 30.5,14.8333 32.1667,16.5 33.5,18.5C 34.9014,17.4793 36.2347,16.4793 37.5,15.5C 38.1667,15.5 38.8333,15.5 39.5,15.5C 39.5,16.5 39.5,17.5 39.5,18.5C 37.6536,18.2222 36.3202,18.8888 35.5,20.5C 38.6867,37.4805 31.6867,44.9805 14.5,43C 5.51778,38.5269 2.35111,31.3603 5,21.5C 5.92601,19.3083 7.09267,17.3083 8.5,15.5C 10.3083,14.0927 12.3083,12.926 14.5,12C 18.8333,11.6667 23.1667,11.3333 27.5,11C 28.3366,9.98873 28.67,8.82207 28.5,7.5C 29.5,7.5 30.5,7.5 31.5,7.5 Z"/></g>
<g><path style="opacity:1" fill="#a28f8a" d="M 31.5,9.5 C 33.8333,11.1667 35.8333,13.1667 37.5,15.5C 36.2347,16.4793 34.9014,17.4793 33.5,18.5C 32.1667,16.5 30.5,14.8333 28.5,13.5C 29.5207,12.0986 30.5207,10.7653 31.5,9.5 Z"/></g>
<g><path style="opacity:1" fill="#3ab9f6" d="M 8.5,21.5 C 9.41847,23.8205 10.7518,25.9871 12.5,28C 17.4429,27.249 22.4429,26.9157 27.5,27C 33.8367,30.0359 34.1701,33.7026 28.5,38C 13.2656,42.9341 6.5989,37.4341 8.5,21.5 Z"/></g>
<g><path style="opacity:0.665" fill="#28b6f5" d="M 38.5,34.5 C 40.1765,35.1834 40.8432,36.5168 40.5,38.5C 45.8333,39.1667 45.8333,39.8333 40.5,40.5C 39.8333,45.8333 39.1667,45.8333 38.5,40.5C 33.1667,39.8333 33.1667,39.1667 38.5,38.5C 38.5,37.1667 38.5,35.8333 38.5,34.5 Z"/></g>
</svg>
