<?xml version="1.0" encoding="UTF-8"?>
<!DOCTYPE svg PUBLIC "-//W3C//DTD SVG 1.1//EN" "http://www.w3.org/Graphics/SVG/1.1/DTD/svg11.dtd">
<svg xmlns="http://www.w3.org/2000/svg" version="1.1" width="48px" height="48px" style="shape-rendering:geometricPrecision; text-rendering:geometricPrecision; image-rendering:optimizeQuality; fill-rule:evenodd; clip-rule:evenodd" xmlns:xlink="http://www.w3.org/1999/xlink">
<g><path style="opacity:0.871" fill="#3cd9eb" d="M 40.5,15.5 C 40.1667,15.5 39.8333,15.5 39.5,15.5C 37.1667,12.5 34.5,9.83333 31.5,7.5C 31.5,7.16667 31.5,6.83333 31.5,6.5C 36.754,3.44615 40.4207,4.94615 42.5,11C 42.101,12.7275 41.4343,14.2275 40.5,15.5 Z"/></g>
<g><path style="opacity:0.841" fill="#f4bb01" d="M 31.5,6.5 C 31.5,6.83333 31.5,7.16667 31.5,7.5C 34.5,9.83333 37.1667,12.5 39.5,15.5C 39.8333,15.5 40.1667,15.5 40.5,15.5C 40.5,17.5 40.5,19.5 40.5,21.5C 37.0613,21.2529 33.728,21.5863 30.5,22.5C 29.8333,22.5 29.5,22.1667 29.5,21.5C 28.6842,17.5925 27.0175,16.9258 24.5,19.5C 18.1077,25.8882 12.1077,32.5549 6.5,39.5C 5.71087,39.2172 5.0442,38.7172 4.5,38C 12.0974,31.0751 18.9307,23.5751 25,15.5C 25.498,12.5184 25.6646,9.51838 25.5,6.5C 27.5,6.5 29.5,6.5 31.5,6.5 Z"/></g>
<g><path style="opacity:1" fill="#e58614" d="M 31.5,7.5 C 34.5,9.83333 37.1667,12.5 39.5,15.5C 34.6319,18.7117 31.2986,17.3783 29.5,11.5C 29.6682,9.82946 30.3349,8.49612 31.5,7.5 Z"/></g>
<g><path style="opacity:1" fill="#ec8100" d="M 29.5,21.5 C 27.1238,22.8166 25.4571,22.1499 24.5,19.5C 27.0175,16.9258 28.6842,17.5925 29.5,21.5 Z"/></g>
<g><path style="opacity:1" fill="#f4bb00" d="M 24.5,19.5 C 25.4571,22.1499 27.1238,22.8166 29.5,21.5C 29.5,22.1667 29.8333,22.5 30.5,22.5C 22.9521,28.5404 15.7854,35.207 9,42.5C 7.95501,41.6266 7.12167,40.6266 6.5,39.5C 12.1077,32.5549 18.1077,25.8882 24.5,19.5 Z"/></g>
</svg>
