<?xml version="1.0" encoding="UTF-8"?>
<!DOCTYPE svg PUBLIC "-//W3C//DTD SVG 1.1//EN" "http://www.w3.org/Graphics/SVG/1.1/DTD/svg11.dtd">
<svg xmlns="http://www.w3.org/2000/svg" version="1.1" width="48px" height="48px" style="shape-rendering:geometricPrecision; text-rendering:geometricPrecision; image-rendering:optimizeQuality; fill-rule:evenodd; clip-rule:evenodd" xmlns:xlink="http://www.w3.org/1999/xlink">
<g><path style="opacity:0.616" fill="#75689c" d="M 19.5,2.5 C 17.5368,3.82018 15.5368,5.15351 13.5,6.5C 13.5,5.83333 13.1667,5.5 12.5,5.5C 14.1757,3.16628 16.509,2.16628 19.5,2.5 Z"/></g>
<g><path style="opacity:1" fill="#99d2ba" d="M 19.5,2.5 C 22.5,1.16667 25.5,1.16667 28.5,2.5C 27.791,3.40397 26.791,3.73731 25.5,3.5C 24.8333,3.83333 24.1667,4.16667 23.5,4.5C 22.8333,3.83333 22.1667,3.16667 21.5,2.5C 20.8333,2.5 20.1667,2.5 19.5,2.5 Z"/></g>
<g><path style="opacity:1" fill="#92cded" d="M 28.5,2.5 C 31.089,2.46095 33.089,3.46095 34.5,5.5C 32.8971,7.29438 30.7304,8.29438 28,8.5C 27.0979,8.25675 26.2646,7.92342 25.5,7.5C 25.5,6.16667 25.5,4.83333 25.5,3.5C 26.791,3.73731 27.791,3.40397 28.5,2.5 Z"/></g>
<g><path style="opacity:1" fill="#b5cde3" d="M 19.5,2.5 C 20.1667,2.5 20.8333,2.5 21.5,2.5C 18.9578,5.47871 16.2911,8.47871 13.5,11.5C 12.5,12.1667 11.5,12.8333 10.5,13.5C 10.5,13.1667 10.5,12.8333 10.5,12.5C 12.385,10.9468 13.385,8.94678 13.5,6.5C 15.5368,5.15351 17.5368,3.82018 19.5,2.5 Z"/></g>
<g><path style="opacity:1" fill="#9ed8ef" d="M 25.5,3.5 C 25.5,4.83333 25.5,6.16667 25.5,7.5C 25.3284,8.49162 25.6618,9.15829 26.5,9.5C 25.8333,10.8333 24.8333,11.8333 23.5,12.5C 23.5,10.1667 23.5,7.83333 23.5,5.5C 23.5,5.16667 23.5,4.83333 23.5,4.5C 24.1667,4.16667 24.8333,3.83333 25.5,3.5 Z"/></g>
<g><path style="opacity:1" fill="#99d5ef" d="M 34.5,5.5 C 36.7099,5.89395 38.0432,7.22729 38.5,9.5C 38.5533,12.1403 39.22,14.6403 40.5,17C 40.1667,17.8333 39.8333,18.6667 39.5,19.5C 37.8014,18.1854 36.1347,18.1854 34.5,19.5C 35.4814,17.5107 36.4814,15.5107 37.5,13.5C 37.2528,12.2867 36.5862,11.62 35.5,11.5C 35.1753,9.8684 34.1753,8.8684 32.5,8.5C 30.5466,9.15558 28.5466,9.48891 26.5,9.5C 25.6618,9.15829 25.3284,8.49162 25.5,7.5C 26.2646,7.92342 27.0979,8.25675 28,8.5C 30.7304,8.29438 32.8971,7.29438 34.5,5.5 Z"/></g>
<g><path style="opacity:1" fill="#8e8ecc" d="M 13.5,6.5 C 13.385,8.94678 12.385,10.9468 10.5,12.5C 9.83333,12.8333 9.16667,13.1667 8.5,13.5C 9.78588,10.883 11.4525,8.54964 13.5,6.5 Z"/></g>
<g><path style="opacity:1" fill="#b8e9ee" d="M 21.5,2.5 C 22.1667,3.16667 22.8333,3.83333 23.5,4.5C 23.5,4.83333 23.5,5.16667 23.5,5.5C 21.87,7.02605 21.0367,9.02605 21,11.5C 20.2917,12.3805 19.4584,13.0472 18.5,13.5C 18.8769,11.742 19.5435,10.0754 20.5,8.5C 20.1667,8.16667 19.8333,7.83333 19.5,7.5C 17.8144,8.85689 16.1477,10.1902 14.5,11.5C 14.1667,11.5 13.8333,11.5 13.5,11.5C 16.2911,8.47871 18.9578,5.47871 21.5,2.5 Z"/></g>
<g><path style="opacity:1" fill="#9adaf1" d="M 35.5,11.5 C 33.0445,9.86172 31.0445,10.195 29.5,12.5C 29.5,13.1667 29.5,13.8333 29.5,14.5C 27.6393,18.3282 28.9726,19.9949 33.5,19.5C 33.5,19.8333 33.5,20.1667 33.5,20.5C 31.8008,20.6602 30.1341,20.4935 28.5,20C 27.7476,19.3292 27.4142,18.4959 27.5,17.5C 26.9022,14.2693 25.7356,13.936 24,16.5C 23.7216,15.5842 23.2216,14.9175 22.5,14.5C 22.8333,13.8333 23.1667,13.1667 23.5,12.5C 24.8333,11.8333 25.8333,10.8333 26.5,9.5C 28.5466,9.48891 30.5466,9.15558 32.5,8.5C 34.1753,8.8684 35.1753,9.8684 35.5,11.5 Z"/></g>
<g><path style="opacity:1" fill="#b7f6f4" d="M 18.5,13.5 C 16.6203,13.7709 15.287,13.1042 14.5,11.5C 16.1477,10.1902 17.8144,8.85689 19.5,7.5C 19.8333,7.83333 20.1667,8.16667 20.5,8.5C 19.5435,10.0754 18.8769,11.742 18.5,13.5 Z"/></g>
<g><path style="opacity:0.78" fill="#7c45a9" d="M 12.5,5.5 C 13.1667,5.5 13.5,5.83333 13.5,6.5C 11.4525,8.54964 9.78588,10.883 8.5,13.5C 7.83333,13.8333 7.16667,14.1667 6.5,14.5C 6.5,13.8333 6.5,13.1667 6.5,12.5C 7.34814,9.11247 9.34814,6.77913 12.5,5.5 Z"/></g>
<g><path style="opacity:1" fill="#a9e4f3" d="M 35.5,11.5 C 36.5862,11.62 37.2528,12.2867 37.5,13.5C 36.4814,15.5107 35.4814,17.5107 34.5,19.5C 34.1667,19.5 33.8333,19.5 33.5,19.5C 28.9726,19.9949 27.6393,18.3282 29.5,14.5C 29.5,15.5 29.5,16.5 29.5,17.5C 33.3428,17.8092 34.6761,16.3092 33.5,13C 32.2068,12.51 30.8734,12.3433 29.5,12.5C 31.0445,10.195 33.0445,9.86172 35.5,11.5 Z"/></g>
<g><path style="opacity:1" fill="#9fe2f4" d="M 23.5,5.5 C 23.5,7.83333 23.5,10.1667 23.5,12.5C 23.1667,13.1667 22.8333,13.8333 22.5,14.5C 21.3951,15.6005 20.0618,16.2671 18.5,16.5C 18.5,15.5 18.5,14.5 18.5,13.5C 19.4584,13.0472 20.2917,12.3805 21,11.5C 21.0367,9.02605 21.87,7.02605 23.5,5.5 Z"/></g>
<g><path style="opacity:1" fill="#b9eef5" d="M 29.5,12.5 C 30.8734,12.3433 32.2068,12.51 33.5,13C 34.6761,16.3092 33.3428,17.8092 29.5,17.5C 29.5,16.5 29.5,15.5 29.5,14.5C 29.5,13.8333 29.5,13.1667 29.5,12.5 Z"/></g>
<g><path style="opacity:1" fill="#99eff0" d="M 13.5,11.5 C 13.8333,11.5 14.1667,11.5 14.5,11.5C 15.287,13.1042 16.6203,13.7709 18.5,13.5C 18.5,14.5 18.5,15.5 18.5,16.5C 16.1259,14.2732 13.4592,13.9398 10.5,15.5C 10.5,14.8333 10.5,14.1667 10.5,13.5C 11.5,12.8333 12.5,12.1667 13.5,11.5 Z"/></g>
<g><path style="opacity:1" fill="#71dcd0" d="M 18.5,16.5 C 18.5,16.8333 18.5,17.1667 18.5,17.5C 18.5,18.1667 18.5,18.8333 18.5,19.5C 17.8826,19.3893 17.3826,19.056 17,18.5C 16.1841,19.8228 15.0174,20.4894 13.5,20.5C 12.8333,21.1667 12.1667,21.8333 11.5,22.5C 10.7814,20.2362 10.448,17.9029 10.5,15.5C 13.4592,13.9398 16.1259,14.2732 18.5,16.5 Z"/></g>
<g><path style="opacity:1" fill="#7cd0f1" d="M 22.5,14.5 C 23.2216,14.9175 23.7216,15.5842 24,16.5C 25.7356,13.936 26.9022,14.2693 27.5,17.5C 24.7104,17.7508 21.7104,17.7508 18.5,17.5C 18.5,17.1667 18.5,16.8333 18.5,16.5C 20.0618,16.2671 21.3951,15.6005 22.5,14.5 Z"/></g>
<g><path style="opacity:1" fill="#7a87c5" d="M 8.5,13.5 C 8.36772,16.5701 8.70105,19.5701 9.5,22.5C 8.83333,22.1667 8.16667,21.8333 7.5,21.5C 6.53178,19.3926 6.19845,17.0593 6.5,14.5C 7.16667,14.1667 7.83333,13.8333 8.5,13.5 Z"/></g>
<g><path style="opacity:1" fill="#6ba2bc" d="M 10.5,12.5 C 10.5,12.8333 10.5,13.1667 10.5,13.5C 10.5,14.1667 10.5,14.8333 10.5,15.5C 10.448,17.9029 10.7814,20.2362 11.5,22.5C 11.5,23.5 11.5,24.5 11.5,25.5C 10.0937,25.0269 9.42702,24.0269 9.5,22.5C 8.70105,19.5701 8.36772,16.5701 8.5,13.5C 9.16667,13.1667 9.83333,12.8333 10.5,12.5 Z"/></g>
<g><path style="opacity:1" fill="#6fcbf0" d="M 18.5,17.5 C 21.7104,17.7508 24.7104,17.7508 27.5,17.5C 27.4142,18.4959 27.7476,19.3292 28.5,20C 30.1341,20.4935 31.8008,20.6602 33.5,20.5C 35.1667,20.5 36.8333,20.5 38.5,20.5C 35.3752,21.4794 32.0419,21.8128 28.5,21.5C 27.8333,21.5 27.1667,21.5 26.5,21.5C 24.7803,18.558 22.447,17.8913 19.5,19.5C 19.5,19.8333 19.5,20.1667 19.5,20.5C 18.8333,20.5 18.5,20.1667 18.5,19.5C 18.5,18.8333 18.5,18.1667 18.5,17.5 Z"/></g>
<g><path style="opacity:1" fill="#7dccee" d="M 38.5,9.5 C 40.3433,11.8531 41.6766,14.5198 42.5,17.5C 41.8333,18.5 41.1667,19.5 40.5,20.5C 39.8333,20.5 39.1667,20.5 38.5,20.5C 36.8333,20.5 35.1667,20.5 33.5,20.5C 33.5,20.1667 33.5,19.8333 33.5,19.5C 33.8333,19.5 34.1667,19.5 34.5,19.5C 36.1347,18.1854 37.8014,18.1854 39.5,19.5C 39.8333,18.6667 40.1667,17.8333 40.5,17C 39.22,14.6403 38.5533,12.1403 38.5,9.5 Z"/></g>
<g><path style="opacity:1" fill="#3eb876" d="M 18.5,19.5 C 18.5,20.1667 18.8333,20.5 19.5,20.5C 20.1098,21.391 20.4431,22.391 20.5,23.5C 19.5416,23.0472 18.7083,22.3805 18,21.5C 16.1651,24.2096 16.3318,26.8762 18.5,29.5C 17.8333,29.5 17.1667,29.5 16.5,29.5C 15.5416,29.0472 14.7083,28.3805 14,27.5C 13.5034,25.1902 13.3367,22.8568 13.5,20.5C 15.0174,20.4894 16.1841,19.8228 17,18.5C 17.3826,19.056 17.8826,19.3893 18.5,19.5 Z"/></g>
<g><path style="opacity:1" fill="#1b9de6" d="M 19.5,19.5 C 23.0089,20.904 26.3422,22.5707 29.5,24.5C 29.7148,26.1788 29.0481,27.1788 27.5,27.5C 26.8333,27.5 26.1667,27.5 25.5,27.5C 24.8333,27.1667 24.1667,26.8333 23.5,26.5C 23.1667,25.5 22.5,24.8333 21.5,24.5C 21.5,23.8333 21.1667,23.5 20.5,23.5C 20.4431,22.391 20.1098,21.391 19.5,20.5C 19.5,20.1667 19.5,19.8333 19.5,19.5 Z"/></g>
<g><path style="opacity:1" fill="#57c1ed" d="M 38.5,20.5 C 39.1667,20.5 39.8333,20.5 40.5,20.5C 40.7709,22.3797 40.1042,23.713 38.5,24.5C 38.5912,22.3023 37.9245,21.9689 36.5,23.5C 33.8333,22.8333 31.1667,22.1667 28.5,21.5C 32.0419,21.8128 35.3752,21.4794 38.5,20.5 Z"/></g>
<g><path style="opacity:1" fill="#40b8ef" d="M 26.5,21.5 C 27.1667,21.5 27.8333,21.5 28.5,21.5C 31.1667,22.1667 33.8333,22.8333 36.5,23.5C 35.1103,24.8993 34.1103,26.5659 33.5,28.5C 32.8333,28.5 32.1667,28.5 31.5,28.5C 31.5106,26.9826 32.1772,25.8159 33.5,25C 30.9165,24.1398 28.5832,22.9731 26.5,21.5 Z"/></g>
<g><path style="opacity:1" fill="#34aeec" d="M 19.5,19.5 C 22.447,17.8913 24.7803,18.558 26.5,21.5C 28.5832,22.9731 30.9165,24.1398 33.5,25C 32.1772,25.8159 31.5106,26.9826 31.5,28.5C 30.5,28.5 29.5,28.5 28.5,28.5C 27.8333,28.5 27.5,28.1667 27.5,27.5C 29.0481,27.1788 29.7148,26.1788 29.5,24.5C 26.3422,22.5707 23.0089,20.904 19.5,19.5 Z"/></g>
<g><path style="opacity:1" fill="#14e42a" d="M 21.5,24.5 C 22.5,24.8333 23.1667,25.5 23.5,26.5C 22.7961,28.3442 21.4628,28.8442 19.5,28C 18.6634,26.9887 18.33,25.8221 18.5,24.5C 19.5,24.5 20.5,24.5 21.5,24.5 Z"/></g>
<g><path style="opacity:1" fill="#6190c9" d="M 42.5,17.5 C 42.8412,21.1595 42.1745,24.4928 40.5,27.5C 40.631,26.7611 40.4643,26.0944 40,25.5C 39.6232,26.9423 38.7899,27.9423 37.5,28.5C 37.8333,27.1667 38.1667,25.8333 38.5,24.5C 40.1042,23.713 40.7709,22.3797 40.5,20.5C 41.1667,19.5 41.8333,18.5 42.5,17.5 Z"/></g>
<g><path style="opacity:1" fill="#53c1ea" d="M 38.5,24.5 C 38.1667,25.8333 37.8333,27.1667 37.5,28.5C 36.5,28.8333 35.8333,29.5 35.5,30.5C 35.1667,30.5 34.8333,30.5 34.5,30.5C 34.6716,29.5084 34.3382,28.8417 33.5,28.5C 34.1103,26.5659 35.1103,24.8993 36.5,23.5C 37.9245,21.9689 38.5912,22.3023 38.5,24.5 Z"/></g>
<g><path style="opacity:0.322" fill="#7e617d" d="M 6.5,12.5 C 6.5,13.1667 6.5,13.8333 6.5,14.5C 6.19845,17.0593 6.53178,19.3926 7.5,21.5C 7.87816,23.921 8.54483,26.2543 9.5,28.5C 8.20222,27.8843 7.20222,27.8843 6.5,28.5C 3.83333,23.1667 3.83333,17.8333 6.5,12.5 Z"/></g>
<g><path style="opacity:0.984" fill="#6f6aaa" d="M 40.5,27.5 C 40.0023,30.3263 38.6689,32.6597 36.5,34.5C 36.7373,33.209 36.404,32.209 35.5,31.5C 35.5,31.1667 35.5,30.8333 35.5,30.5C 35.8333,29.5 36.5,28.8333 37.5,28.5C 38.7899,27.9423 39.6232,26.9423 40,25.5C 40.4643,26.0944 40.631,26.7611 40.5,27.5 Z"/></g>
<g><path style="opacity:1" fill="#6461aa" d="M 7.5,21.5 C 8.16667,21.8333 8.83333,22.1667 9.5,22.5C 9.42702,24.0269 10.0937,25.0269 11.5,25.5C 11.5,26.1667 11.5,26.8333 11.5,27.5C 12.075,29.4113 13.075,31.078 14.5,32.5C 11.6,32.5922 9.93331,31.2589 9.5,28.5C 8.54483,26.2543 7.87816,23.921 7.5,21.5 Z"/></g>
<g><path style="opacity:1" fill="#508480" d="M 13.5,20.5 C 13.3367,22.8568 13.5034,25.1902 14,27.5C 14.7083,28.3805 15.5416,29.0472 16.5,29.5C 17.1667,30.5 17.8333,31.5 18.5,32.5C 17.8333,32.5 17.1667,32.5 16.5,32.5C 15.1667,30.5 13.5,28.8333 11.5,27.5C 11.5,26.8333 11.5,26.1667 11.5,25.5C 11.5,24.5 11.5,23.5 11.5,22.5C 12.1667,21.8333 12.8333,21.1667 13.5,20.5 Z"/></g>
<g><path style="opacity:1" fill="#1cd348" d="M 20.5,23.5 C 21.1667,23.5 21.5,23.8333 21.5,24.5C 20.5,24.5 19.5,24.5 18.5,24.5C 18.33,25.8221 18.6634,26.9887 19.5,28C 21.4628,28.8442 22.7961,28.3442 23.5,26.5C 24.1667,26.8333 24.8333,27.1667 25.5,27.5C 25.6107,28.1174 25.944,28.6174 26.5,29C 23.854,29.4974 21.1873,29.6641 18.5,29.5C 16.3318,26.8762 16.1651,24.2096 18,21.5C 18.7083,22.3805 19.5416,23.0472 20.5,23.5 Z"/></g>
<g><path style="opacity:1" fill="#43d49b" d="M 25.5,27.5 C 26.1667,27.5 26.8333,27.5 27.5,27.5C 27.5,28.1667 27.8333,28.5 28.5,28.5C 29.6085,29.29 30.9419,29.79 32.5,30C 28.2891,31.5339 23.9558,31.8673 19.5,31C 18.944,30.6174 18.6107,30.1174 18.5,29.5C 21.1873,29.6641 23.854,29.4974 26.5,29C 25.944,28.6174 25.6107,28.1174 25.5,27.5 Z"/></g>
<g><path style="opacity:1" fill="#50c4b7" d="M 28.5,28.5 C 29.5,28.5 30.5,28.5 31.5,28.5C 32.1667,28.5 32.8333,28.5 33.5,28.5C 34.3382,28.8417 34.6716,29.5084 34.5,30.5C 29.3608,33.5098 24.0274,34.1765 18.5,32.5C 17.8333,31.5 17.1667,30.5 16.5,29.5C 17.1667,29.5 17.8333,29.5 18.5,29.5C 18.6107,30.1174 18.944,30.6174 19.5,31C 23.9558,31.8673 28.2891,31.5339 32.5,30C 30.9419,29.79 29.6085,29.29 28.5,28.5 Z"/></g>
<g><path style="opacity:1" fill="#5f98c6" d="M 34.5,30.5 C 34.8333,30.5 35.1667,30.5 35.5,30.5C 35.5,30.8333 35.5,31.1667 35.5,31.5C 32.9684,32.5957 30.6351,33.9291 28.5,35.5C 25.8333,35.5 23.1667,35.5 20.5,35.5C 18.9236,34.8571 17.5903,33.8571 16.5,32.5C 17.1667,32.5 17.8333,32.5 18.5,32.5C 24.0274,34.1765 29.3608,33.5098 34.5,30.5 Z"/></g>
<g><path style="opacity:1" fill="#7955af" d="M 35.5,31.5 C 36.404,32.209 36.7373,33.209 36.5,34.5C 35.8333,34.8333 35.1667,35.1667 34.5,35.5C 34.1667,35.5 33.8333,35.5 33.5,35.5C 31.8333,35.5 30.1667,35.5 28.5,35.5C 30.6351,33.9291 32.9684,32.5957 35.5,31.5 Z"/></g>
<g><path style="opacity:1" fill="#5c71b3" d="M 11.5,27.5 C 13.5,28.8333 15.1667,30.5 16.5,32.5C 17.5903,33.8571 18.9236,34.8571 20.5,35.5C 20.1667,35.5 19.8333,35.5 19.5,35.5C 18.5,35.5 17.5,35.5 16.5,35.5C 15.8333,34.5 15.1667,33.5 14.5,32.5C 13.075,31.078 12.075,29.4113 11.5,27.5 Z"/></g>
<g><path style="opacity:1" fill="#7b459b" d="M 9.5,28.5 C 9.93331,31.2589 11.6,32.5922 14.5,32.5C 15.1667,33.5 15.8333,34.5 16.5,35.5C 14.8333,35.5 13.1667,35.5 11.5,35.5C 8.67686,34.0077 7.01019,31.6743 6.5,28.5C 7.20222,27.8843 8.20222,27.8843 9.5,28.5 Z"/></g>
<g><path style="opacity:1" fill="#ae5c1a" d="M 11.5,35.5 C 13.1667,35.5 14.8333,35.5 16.5,35.5C 17.5,35.5 18.5,35.5 19.5,35.5C 18.7375,36.2679 17.7375,36.7679 16.5,37C 19.3333,37.1667 22.1667,37.3333 25,37.5C 28.2515,37.4809 31.0849,36.8142 33.5,35.5C 33.8333,35.5 34.1667,35.5 34.5,35.5C 34.5,35.8333 34.5,36.1667 34.5,36.5C 33.8166,38.1765 32.4832,38.8432 30.5,38.5C 26.5,38.5 22.5,38.5 18.5,38.5C 17.5,38.5 16.5,38.5 15.5,38.5C 14.4324,37.5655 13.099,37.2322 11.5,37.5C 11.5,36.8333 11.5,36.1667 11.5,35.5 Z"/></g>
<g><path style="opacity:1" fill="#874310" d="M 19.5,35.5 C 19.8333,35.5 20.1667,35.5 20.5,35.5C 23.1667,35.5 25.8333,35.5 28.5,35.5C 30.1667,35.5 31.8333,35.5 33.5,35.5C 31.0849,36.8142 28.2515,37.4809 25,37.5C 22.1667,37.3333 19.3333,37.1667 16.5,37C 17.7375,36.7679 18.7375,36.2679 19.5,35.5 Z"/></g>
<g><path style="opacity:0.843" fill="#ca6c1c" d="M 11.5,37.5 C 13.099,37.2322 14.4324,37.5655 15.5,38.5C 12.858,38.4877 11.5246,39.821 11.5,42.5C 10.8902,43.391 10.5569,44.391 10.5,45.5C 9.5,45.5 8.5,45.5 7.5,45.5C 8.30445,42.5578 9.63778,39.8911 11.5,37.5 Z"/></g>
<g><path style="opacity:1" fill="#cc6f1f" d="M 18.5,38.5 C 22.5,38.5 26.5,38.5 30.5,38.5C 29.1667,39.8333 29.1667,41.1667 30.5,42.5C 27.8127,42.3359 25.146,42.5026 22.5,43C 23.2524,43.6708 23.5858,44.5041 23.5,45.5C 22.1667,45.5 20.8333,45.5 19.5,45.5C 19.4431,44.391 19.1098,43.391 18.5,42.5C 19.5,42.5 20.5,42.5 21.5,42.5C 21.5,41.5 21.5,40.5 21.5,39.5C 20.209,39.7373 19.209,39.404 18.5,38.5 Z"/></g>
<g><path style="opacity:1" fill="#d4762c" d="M 34.5,36.5 C 36.0075,38.1815 37.0075,40.1815 37.5,42.5C 35.5,42.5 33.5,42.5 31.5,42.5C 31.1667,42.5 30.8333,42.5 30.5,42.5C 29.1667,41.1667 29.1667,39.8333 30.5,38.5C 32.4832,38.8432 33.8166,38.1765 34.5,36.5 Z"/></g>
<g><path style="opacity:1" fill="#fa9b44" d="M 15.5,38.5 C 16.5,38.5 17.5,38.5 18.5,38.5C 19.209,39.404 20.209,39.7373 21.5,39.5C 21.5,40.5 21.5,41.5 21.5,42.5C 20.5,42.5 19.5,42.5 18.5,42.5C 16.1667,42.5 13.8333,42.5 11.5,42.5C 11.5246,39.821 12.858,38.4877 15.5,38.5 Z"/></g>
<g><path style="opacity:0.908" fill="#cd6911" d="M 31.5,42.5 C 33.5,42.5 35.5,42.5 37.5,42.5C 39.2327,43.0076 39.566,43.841 38.5,45C 35.854,45.4974 33.1873,45.6641 30.5,45.5C 28.7078,44.6909 26.7078,44.1909 24.5,44C 27.0356,43.8138 29.369,43.3138 31.5,42.5 Z"/></g>
<g><path style="opacity:0.267" fill="#f0a965" d="M 11.5,42.5 C 13.8333,42.5 16.1667,42.5 18.5,42.5C 19.1098,43.391 19.4431,44.391 19.5,45.5C 16.5,45.5 13.5,45.5 10.5,45.5C 10.5569,44.391 10.8902,43.391 11.5,42.5 Z"/></g>
<g><path style="opacity:0.267" fill="#b85f0d" d="M 30.5,42.5 C 30.8333,42.5 31.1667,42.5 31.5,42.5C 29.369,43.3138 27.0356,43.8138 24.5,44C 26.7078,44.1909 28.7078,44.6909 30.5,45.5C 28.1667,45.5 25.8333,45.5 23.5,45.5C 23.5858,44.5041 23.2524,43.6708 22.5,43C 25.146,42.5026 27.8127,42.3359 30.5,42.5 Z"/></g>
</svg>
