<?xml version="1.0" encoding="UTF-8"?>
<!DOCTYPE svg PUBLIC "-//W3C//DTD SVG 1.1//EN" "http://www.w3.org/Graphics/SVG/1.1/DTD/svg11.dtd">
<svg xmlns="http://www.w3.org/2000/svg" version="1.1" width="64px" height="64px" style="shape-rendering:geometricPrecision; text-rendering:geometricPrecision; image-rendering:optimizeQuality; fill-rule:evenodd; clip-rule:evenodd" xmlns:xlink="http://www.w3.org/1999/xlink">
<g><path style="opacity:1" fill="#bb6128" d="M 36.5,5.5 C 31.5,5.5 26.5,5.5 21.5,5.5C 20.7659,4.29208 20.4326,2.95875 20.5,1.5C 26.1667,1.5 31.8333,1.5 37.5,1.5C 37.5674,2.95875 37.2341,4.29208 36.5,5.5 Z"/></g>
<g><path style="opacity:0.931" fill="#e6a9f9" d="M 35.5,9.5 C 31.1667,9.5 26.8333,9.5 22.5,9.5C 21.4138,9.38002 20.7472,8.71335 20.5,7.5C 20.5427,6.58362 20.8761,5.91695 21.5,5.5C 26.5,5.5 31.5,5.5 36.5,5.5C 38.3792,6.34141 40.3792,6.67474 42.5,6.5C 42.5,4.83333 42.5,3.16667 42.5,1.5C 43.8333,1.5 45.1667,1.5 46.5,1.5C 46.5,3.16667 46.5,4.83333 46.5,6.5C 48.1667,6.5 49.8333,6.5 51.5,6.5C 51.5,7.5 51.5,8.5 51.5,9.5C 49.8333,9.5 48.1667,9.5 46.5,9.5C 46.5,11.1667 46.5,12.8333 46.5,14.5C 45.1667,14.5 43.8333,14.5 42.5,14.5C 42.5,12.8333 42.5,11.1667 42.5,9.5C 40.1667,9.5 37.8333,9.5 35.5,9.5 Z M 43.5,6.5 C 45.4646,6.94835 45.7979,7.94835 44.5,9.5C 43.6143,8.67504 43.281,7.67504 43.5,6.5 Z"/></g>
<g><path style="opacity:1" fill="#c085d4" d="M 22.5,9.5 C 26.8333,9.5 31.1667,9.5 35.5,9.5C 35.5,13.8333 35.5,18.1667 35.5,22.5C 42.9237,24.7619 47.4237,29.7619 49,37.5C 48.7863,57.3649 38.953,64.8649 19.5,60C 12.3675,55.9027 8.70081,49.736 8.5,41.5C 9.60895,41.5569 10.609,41.8902 11.5,42.5C 14.0393,56.7777 22.3726,61.9443 36.5,58C 46.563,51.9119 49.2297,43.4119 44.5,32.5C 42.2573,31.5258 39.924,31.1924 37.5,31.5C 35.2524,27.7457 32.419,24.4124 29,21.5C 28.5017,18.1832 28.335,14.8499 28.5,11.5C 26.5,11.5 24.5,11.5 22.5,11.5C 22.5,10.8333 22.5,10.1667 22.5,9.5 Z"/></g>
<g><path style="opacity:1" fill="#e6adf9" d="M 22.5,11.5 C 24.5,11.5 26.5,11.5 28.5,11.5C 28.335,14.8499 28.5017,18.1832 29,21.5C 32.419,24.4124 35.2524,27.7457 37.5,31.5C 30.5,31.5 23.5,31.5 16.5,31.5C 18.9173,28.7798 21.9173,26.7798 25.5,25.5C 26.8333,23.1667 26.8333,20.8333 25.5,18.5C 24.5344,20.396 24.2011,22.396 24.5,24.5C 15.5603,27.1145 11.227,33.1145 11.5,42.5C 10.609,41.8902 9.60895,41.5569 8.5,41.5C 8.64494,31.7056 13.3116,25.3723 22.5,22.5C 22.5,18.8333 22.5,15.1667 22.5,11.5 Z"/></g>
<g><path style="opacity:0.825" fill="#e5a9f9" d="M 8.5,11.5 C 9.83333,11.5 11.1667,11.5 12.5,11.5C 12.5,13.1667 12.5,14.8333 12.5,16.5C 14.1667,16.5 15.8333,16.5 17.5,16.5C 17.5,17.5 17.5,18.5 17.5,19.5C 15.8333,19.5 14.1667,19.5 12.5,19.5C 12.5,21.1667 12.5,22.8333 12.5,24.5C 11.1667,24.5 9.83333,24.5 8.5,24.5C 8.5,22.8333 8.5,21.1667 8.5,19.5C 6.83333,19.5 5.16667,19.5 3.5,19.5C 3.5,18.5 3.5,17.5 3.5,16.5C 5.16667,16.5 6.83333,16.5 8.5,16.5C 8.5,14.8333 8.5,13.1667 8.5,11.5 Z M 9.5,16.5 C 11.4646,16.9483 11.7979,17.9483 10.5,19.5C 9.61432,18.675 9.28099,17.675 9.5,16.5 Z"/></g>
<g><path style="opacity:1" fill="#f9f2fb" d="M 16.5,31.5 C 14.0216,34.3291 13.0216,37.6625 13.5,41.5C 12.8333,41.8333 12.1667,42.1667 11.5,42.5C 11.227,33.1145 15.5603,27.1145 24.5,24.5C 24.2011,22.396 24.5344,20.396 25.5,18.5C 26.8333,20.8333 26.8333,23.1667 25.5,25.5C 21.9173,26.7798 18.9173,28.7798 16.5,31.5 Z"/></g>
<g><path style="opacity:0.825" fill="#e5a9f9" d="M 50.5,19.5 C 51.8333,19.5 53.1667,19.5 54.5,19.5C 54.5,21.1667 54.5,22.8333 54.5,24.5C 56.1667,24.5 57.8333,24.5 59.5,24.5C 59.5,25.5 59.5,26.5 59.5,27.5C 57.8333,27.5 56.1667,27.5 54.5,27.5C 54.5,29.1667 54.5,30.8333 54.5,32.5C 53.1667,32.5 51.8333,32.5 50.5,32.5C 50.5,30.8333 50.5,29.1667 50.5,27.5C 48.8333,27.5 47.1667,27.5 45.5,27.5C 45.5,26.5 45.5,25.5 45.5,24.5C 47.1667,24.5 48.8333,24.5 50.5,24.5C 50.5,22.8333 50.5,21.1667 50.5,19.5 Z M 51.5,24.5 C 53.4646,24.9483 53.7979,25.9483 52.5,27.5C 51.6143,26.675 51.281,25.675 51.5,24.5 Z"/></g>
<g><path style="opacity:1" fill="#995ea8" d="M 16.5,31.5 C 23.5,31.5 30.5,31.5 37.5,31.5C 38.0567,35.8884 36.3901,39.0551 32.5,41C 26.1754,41.4995 19.8421,41.6662 13.5,41.5C 13.0216,37.6625 14.0216,34.3291 16.5,31.5 Z"/></g>
<g><path style="opacity:1" fill="#7c498b" d="M 37.5,31.5 C 39.924,31.1924 42.2573,31.5258 44.5,32.5C 49.2297,43.4119 46.563,51.9119 36.5,58C 22.3726,61.9443 14.0393,56.7777 11.5,42.5C 12.1667,42.1667 12.8333,41.8333 13.5,41.5C 19.8421,41.6662 26.1754,41.4995 32.5,41C 36.3901,39.0551 38.0567,35.8884 37.5,31.5 Z"/></g>
</svg>
