<?xml version="1.0" encoding="UTF-8"?>
<!DOCTYPE svg PUBLIC "-//W3C//DTD SVG 1.1//EN" "http://www.w3.org/Graphics/SVG/1.1/DTD/svg11.dtd">
<svg xmlns="http://www.w3.org/2000/svg" version="1.1" width="62px" height="62px" style="shape-rendering:geometricPrecision; text-rendering:geometricPrecision; image-rendering:optimizeQuality; fill-rule:evenodd; clip-rule:evenodd" xmlns:xlink="http://www.w3.org/1999/xlink">
<g><path style="opacity:0.906" fill="#d27873" d="M 36.5,19.5 C 35.4324,18.5655 34.099,18.2322 32.5,18.5C 32.7373,17.209 32.404,16.209 31.5,15.5C 31.0133,14.5266 30.5133,13.5266 30,12.5C 29.31,11.2617 28.81,11.2617 28.5,12.5C 25.969,8.93277 22.969,8.59944 19.5,11.5C 19.5654,11.0618 19.3988,10.7284 19,10.5C 18.3848,12.1161 17.3848,13.4495 16,14.5C 15.51,15.7932 15.3433,17.1266 15.5,18.5C 14.3646,20.2132 12.698,20.8799 10.5,20.5C 9.37753,18.7116 9.21086,16.7116 10,14.5C 14.059,10.9441 17.559,6.94414 20.5,2.5C 22.059,1.55348 23.7257,0.886812 25.5,0.5C 28.7446,4.60614 32.2446,8.60614 36,12.5C 37.5978,14.8945 37.7645,17.2279 36.5,19.5 Z"/></g>
<g><path style="opacity:0.865" fill="#ab4443" d="M 51.5,26.5 C 50.1667,27.8333 48.8333,27.8333 47.5,26.5C 46.7992,22.1809 47.9659,18.5142 51,15.5C 52.3468,10.5279 50.6801,8.52785 46,9.5C 45.8685,11.4066 46.7018,12.9066 48.5,14C 46.5707,17.1362 44.2374,17.3029 41.5,14.5C 39.0466,12.0044 38.8799,9.33774 41,6.5C 42.8781,3.76988 45.3781,2.10321 48.5,1.5C 52.5178,4.1984 55.5178,7.86507 57.5,12.5C 54.4177,16.6686 52.4177,21.3352 51.5,26.5 Z"/></g>
<g><path style="opacity:1" fill="#fcc3b9" d="M 28.5,12.5 C 28.5,14.5 28.5,16.5 28.5,18.5C 25.778,16.2267 22.778,15.8933 19.5,17.5C 19.5,15.5 19.5,13.5 19.5,11.5C 22.969,8.59944 25.969,8.93277 28.5,12.5 Z"/></g>
<g><path style="opacity:1" fill="#3c2e38" d="M 19.5,11.5 C 19.5,13.5 19.5,15.5 19.5,17.5C 19.1667,18.1667 18.8333,18.8333 18.5,19.5C 17.391,19.4431 16.391,19.1098 15.5,18.5C 15.3433,17.1266 15.51,15.7932 16,14.5C 17.3848,13.4495 18.3848,12.1161 19,10.5C 19.3988,10.7284 19.5654,11.0618 19.5,11.5 Z"/></g>
<g><path style="opacity:1" fill="#463740" d="M 31.5,15.5 C 31.8432,17.4832 31.1765,18.8166 29.5,19.5C 28.8333,19.5 28.5,19.1667 28.5,18.5C 28.5,16.5 28.5,14.5 28.5,12.5C 28.81,11.2617 29.31,11.2617 30,12.5C 30.5133,13.5266 31.0133,14.5266 31.5,15.5 Z"/></g>
<g><path style="opacity:1" fill="#f1e8f1" d="M 28.5,18.5 C 28.5,19.1667 28.8333,19.5 29.5,19.5C 29.5,20.1667 29.8333,20.5 30.5,20.5C 30.8743,24.6474 29.8743,28.3141 27.5,31.5C 26.1154,32.5736 24.9487,33.9069 24,35.5C 23.8333,35 23.6667,34.5 23.5,34C 25.776,30.8396 26.6093,27.3396 26,23.5C 25.6466,26.5385 24.4799,29.2052 22.5,31.5C 21.066,29.7801 20.2326,27.7801 20,25.5C 19.7811,26.938 19.2811,28.2713 18.5,29.5C 17.8165,29.1373 17.1499,28.8039 16.5,28.5C 16.298,26.0504 16.6314,23.717 17.5,21.5C 17.8333,20.8333 18.1667,20.1667 18.5,19.5C 18.8333,18.8333 19.1667,18.1667 19.5,17.5C 22.778,15.8933 25.778,16.2267 28.5,18.5 Z"/></g>
<g><path style="opacity:0.87" fill="#874949" d="M 31.5,15.5 C 32.404,16.209 32.7373,17.209 32.5,18.5C 34.099,18.2322 35.4324,18.5655 36.5,19.5C 36.5,19.8333 36.5,20.1667 36.5,20.5C 34.5,20.5 32.5,20.5 30.5,20.5C 29.8333,20.5 29.5,20.1667 29.5,19.5C 31.1765,18.8166 31.8432,17.4832 31.5,15.5 Z"/></g>
<g><path style="opacity:0.92" fill="#854948" d="M 15.5,18.5 C 16.391,19.1098 17.391,19.4431 18.5,19.5C 18.1667,20.1667 17.8333,20.8333 17.5,21.5C 15.8333,22.1667 14.1667,22.8333 12.5,23.5C 11.0937,23.0269 10.427,22.0269 10.5,20.5C 12.698,20.8799 14.3646,20.2132 15.5,18.5 Z"/></g>
<g><path style="opacity:0.963" fill="#cc7774" d="M 30.5,20.5 C 32.5,20.5 34.5,20.5 36.5,20.5C 37.5077,22.3386 39.0077,23.6719 41,24.5C 41.7796,26.3869 41.6129,28.0536 40.5,29.5C 36.3026,31.4011 32.136,33.4011 28,35.5C 27.5357,34.9056 27.369,34.2389 27.5,33.5C 27.5,32.8333 27.5,32.1667 27.5,31.5C 29.8743,28.3141 30.8743,24.6474 30.5,20.5 Z"/></g>
<g><path style="opacity:0.954" fill="#c97572" d="M 17.5,21.5 C 16.6314,23.717 16.298,26.0504 16.5,28.5C 16.5569,29.609 16.8902,30.609 17.5,31.5C 14.8983,33.8577 14.8983,36.3577 17.5,39C 16.3479,41.3179 14.6813,43.1513 12.5,44.5C 7.42258,48.6539 4.42258,53.9872 3.5,60.5C 2.5,60.5 1.5,60.5 0.5,60.5C 0.501341,46.7767 4.50134,34.4433 12.5,23.5C 14.1667,22.8333 15.8333,22.1667 17.5,21.5 Z"/></g>
<g><path style="opacity:0.847" fill="#ef837d" d="M 46.5,26.5 C 46.5,27.5 46.5,28.5 46.5,29.5C 51.6817,29.5573 51.6817,30.224 46.5,31.5C 51.6817,32.776 51.6817,33.4427 46.5,33.5C 45.5,33.5 44.5,33.5 43.5,33.5C 43.3379,31.4727 43.5045,29.4727 44,27.5C 44.6708,26.7476 45.5041,26.4142 46.5,26.5 Z"/></g>
<g><path style="opacity:0.888" fill="#fcc3b9" d="M 46.5,26.5 C 46.8333,26.5 47.1667,26.5 47.5,26.5C 48.8333,27.8333 50.1667,27.8333 51.5,26.5C 52.4959,26.4142 53.3292,26.7476 54,27.5C 54.7358,30.592 54.5691,33.592 53.5,36.5C 52.8333,36.5 52.1667,36.5 51.5,36.5C 49.7085,36.634 48.0418,36.3007 46.5,35.5C 46.5,34.8333 46.5,34.1667 46.5,33.5C 51.6817,33.4427 51.6817,32.776 46.5,31.5C 51.6817,30.224 51.6817,29.5573 46.5,29.5C 46.5,28.5 46.5,27.5 46.5,26.5 Z"/></g>
<g><path style="opacity:1" fill="#b5a8c3" d="M 27.5,31.5 C 27.5,32.1667 27.5,32.8333 27.5,33.5C 26.1667,35.8333 26.1667,38.1667 27.5,40.5C 25.7912,47.7074 22.9579,47.7074 19,40.5C 18.2797,38.8876 18.4464,37.3876 19.5,36C 17.8934,34.951 17.2267,33.451 17.5,31.5C 16.8902,30.609 16.5569,29.609 16.5,28.5C 17.1499,28.8039 17.8165,29.1373 18.5,29.5C 19.2811,28.2713 19.7811,26.938 20,25.5C 20.2326,27.7801 21.066,29.7801 22.5,31.5C 24.4799,29.2052 25.6466,26.5385 26,23.5C 26.6093,27.3396 25.776,30.8396 23.5,34C 23.6667,34.5 23.8333,35 24,35.5C 24.9487,33.9069 26.1154,32.5736 27.5,31.5 Z"/></g>
<g><path style="opacity:0.982" fill="#c87471" d="M 40.5,31.5 C 41.2679,32.2625 41.7679,33.2625 42,34.5C 42.6708,35.2524 43.5041,35.5858 44.5,35.5C 42.8443,38.8113 41.1777,42.1447 39.5,45.5C 38.7568,44.0921 37.9234,42.7588 37,41.5C 36.2446,45.2554 36.4113,48.9221 37.5,52.5C 37.8928,55.5133 37.2261,58.1799 35.5,60.5C 28.1667,60.5 20.8333,60.5 13.5,60.5C 12.0924,59.0892 11.0924,57.4225 10.5,55.5C 11.4669,53.2383 12.1336,50.905 12.5,48.5C 13.4584,48.0472 14.2917,47.3805 15,46.5C 15.3333,47.1667 15.6667,47.8333 16,48.5C 16.7393,46.7795 17.5726,45.1128 18.5,43.5C 21.1148,45.9716 24.1148,47.6382 27.5,48.5C 27.9861,45.6183 27.9861,42.9517 27.5,40.5C 29.8723,34.9311 31.3723,35.2645 32,41.5C 32.3333,39.5 32.6667,37.5 33,35.5C 35.6327,34.2475 38.1327,32.9142 40.5,31.5 Z"/></g>
<g><path style="opacity:1" fill="#854646" d="M 40.5,29.5 C 40.5,30.1667 40.5,30.8333 40.5,31.5C 38.1327,32.9142 35.6327,34.2475 33,35.5C 32.6667,37.5 32.3333,39.5 32,41.5C 31.3723,35.2645 29.8723,34.9311 27.5,40.5C 26.1667,38.1667 26.1667,35.8333 27.5,33.5C 27.369,34.2389 27.5357,34.9056 28,35.5C 32.136,33.4011 36.3026,31.4011 40.5,29.5 Z"/></g>
<g><path style="opacity:1" fill="#ac4948" d="M 46.5,35.5 C 48.0418,36.3007 49.7085,36.634 51.5,36.5C 51.5569,37.609 51.8902,38.609 52.5,39.5C 51.5088,46.3134 51.1755,53.3134 51.5,60.5C 50.5,60.5 49.5,60.5 48.5,60.5C 48.5,58.8333 48.5,57.1667 48.5,55.5C 48.6658,50.8215 48.4992,46.1548 48,41.5C 47.1482,40.4293 46.3149,39.4293 45.5,38.5C 46.1098,37.609 46.4431,36.609 46.5,35.5 Z"/></g>
<g><path style="opacity:0.922" fill="#ce7772" d="M 51.5,36.5 C 52.1667,36.5 52.8333,36.5 53.5,36.5C 59.6564,42.1733 61.8231,49.1733 60,57.5C 58.1575,59.1712 55.9908,60.1712 53.5,60.5C 57.5755,53.3866 57.2422,46.3866 52.5,39.5C 51.8902,38.609 51.5569,37.609 51.5,36.5 Z"/></g>
<g><path style="opacity:1" fill="#804444" d="M 44.5,35.5 C 45.1667,35.5 45.8333,35.5 46.5,35.5C 46.4431,36.609 46.1098,37.609 45.5,38.5C 43.4696,43.0461 43.1362,47.7128 44.5,52.5C 43.7417,54.9889 43.7417,57.3222 44.5,59.5C 41.1164,58.1166 38.7831,55.7833 37.5,52.5C 36.4113,48.9221 36.2446,45.2554 37,41.5C 37.9234,42.7588 38.7568,44.0921 39.5,45.5C 41.1777,42.1447 42.8443,38.8113 44.5,35.5 Z"/></g>
<g><path style="opacity:1" fill="#f0bbb2" d="M 45.5,38.5 C 46.3149,39.4293 47.1482,40.4293 48,41.5C 48.4992,46.1548 48.6658,50.8215 48.5,55.5C 46.0274,55.9118 44.6941,54.9118 44.5,52.5C 43.1362,47.7128 43.4696,43.0461 45.5,38.5 Z"/></g>
<g><path style="opacity:0.99" fill="#3e2f39" d="M 52.5,39.5 C 57.2422,46.3866 57.5755,53.3866 53.5,60.5C 52.8333,60.5 52.1667,60.5 51.5,60.5C 51.1755,53.3134 51.5088,46.3134 52.5,39.5 Z"/></g>
<g><path style="opacity:1" fill="#854747" d="M 17.5,31.5 C 17.2267,33.451 17.8934,34.951 19.5,36C 18.4464,37.3876 18.2797,38.8876 19,40.5C 22.9579,47.7074 25.7912,47.7074 27.5,40.5C 27.9861,42.9517 27.9861,45.6183 27.5,48.5C 24.1148,47.6382 21.1148,45.9716 18.5,43.5C 17.5726,45.1128 16.7393,46.7795 16,48.5C 15.6667,47.8333 15.3333,47.1667 15,46.5C 14.2917,47.3805 13.4584,48.0472 12.5,48.5C 12.5,47.1667 12.5,45.8333 12.5,44.5C 14.6813,43.1513 16.3479,41.3179 17.5,39C 14.8983,36.3577 14.8983,33.8577 17.5,31.5 Z"/></g>
<g><path style="opacity:0.93" fill="#3a2d37" d="M 12.5,44.5 C 12.5,45.8333 12.5,47.1667 12.5,48.5C 12.1336,50.905 11.4669,53.2383 10.5,55.5C 11.0924,57.4225 12.0924,59.0892 13.5,60.5C 10.1667,60.5 6.83333,60.5 3.5,60.5C 4.42258,53.9872 7.42258,48.6539 12.5,44.5 Z"/></g>
<g><path style="opacity:0.797" fill="#3a2c37" d="M 37.5,52.5 C 38.7831,55.7833 41.1164,58.1166 44.5,59.5C 43.7417,57.3222 43.7417,54.9889 44.5,52.5C 44.6941,54.9118 46.0274,55.9118 48.5,55.5C 48.5,57.1667 48.5,58.8333 48.5,60.5C 44.1667,60.5 39.8333,60.5 35.5,60.5C 37.2261,58.1799 37.8928,55.5133 37.5,52.5 Z"/></g>
</svg>
