<?xml version="1.0" encoding="UTF-8"?>
<!DOCTYPE svg PUBLIC "-//W3C//DTD SVG 1.1//EN" "http://www.w3.org/Graphics/SVG/1.1/DTD/svg11.dtd">
<svg xmlns="http://www.w3.org/2000/svg" version="1.1" width="48px" height="48px" style="shape-rendering:geometricPrecision; text-rendering:geometricPrecision; image-rendering:optimizeQuality; fill-rule:evenodd; clip-rule:evenodd" xmlns:xlink="http://www.w3.org/1999/xlink">
<g><path style="opacity:0.914" fill="#875d50" d="M 30.5,-0.5 C 33.8333,-0.5 37.1667,-0.5 40.5,-0.5C 42.8835,0.88507 44.5501,2.88507 45.5,5.5C 47.4169,10.5935 46.4169,14.9268 42.5,18.5C 42.5,17.1667 42.5,15.8333 42.5,14.5C 42.4403,11.6592 41.7736,8.99253 40.5,6.5C 40.4257,4.5891 39.4257,3.42244 37.5,3C 34.8333,2.33333 32.1667,2.33333 29.5,3C 27.5905,5.37679 25.5905,7.54346 23.5,9.5C 22.9569,9.44001 22.6236,9.10667 22.5,8.5C 23.8216,4.18478 26.4883,1.18478 30.5,-0.5 Z"/></g>
<g><path style="opacity:1" fill="#614239" d="M 40.5,6.5 C 35.0525,3.482 30.7191,4.64867 27.5,10C 25.9343,10.765 24.6009,10.5983 23.5,9.5C 25.5905,7.54346 27.5905,5.37679 29.5,3C 32.1667,2.33333 34.8333,2.33333 37.5,3C 39.4257,3.42244 40.4257,4.5891 40.5,6.5 Z"/></g>
<g><path style="opacity:0.95" fill="#875c4f" d="M 42.5,14.5 C 42.5,15.8333 42.5,17.1667 42.5,18.5C 41.657,20.1733 40.3237,21.34 38.5,22C 34.0123,22.5601 29.6789,22.2268 25.5,21C 18.1364,28.698 10.4697,36.0313 2.5,43C 1.55198,43.4828 0.551975,43.6495 -0.5,43.5C -0.5,42.8333 -0.5,42.1667 -0.5,41.5C 7.70327,32.9789 16.0366,24.4789 24.5,16C 25.8333,15.3333 27.1667,15.3333 28.5,16C 33.8872,21.0426 38.5539,20.5426 42.5,14.5 Z"/></g>
<g><path style="opacity:1" fill="#62433a" d="M 45.5,5.5 C 46.1667,6.16667 46.8333,6.83333 47.5,7.5C 47.5,10.8333 47.5,14.1667 47.5,17.5C 45.691,20.1393 43.3576,22.3059 40.5,24C 35.7991,24.3932 31.1324,24.3932 26.5,24C 19.1364,31.698 11.4697,39.0313 3.5,46C 2.20677,46.49 0.873441,46.6567 -0.5,46.5C -0.5,45.5 -0.5,44.5 -0.5,43.5C 0.551975,43.6495 1.55198,43.4828 2.5,43C 10.4697,36.0313 18.1364,28.698 25.5,21C 29.6789,22.2268 34.0123,22.5601 38.5,22C 40.3237,21.34 41.657,20.1733 42.5,18.5C 46.4169,14.9268 47.4169,10.5935 45.5,5.5 Z"/></g>
</svg>
